<?xml version="1.0" encoding="iso-8859-1"?>
<!-- Generator: Adobe Illustrator 16.0.0, SVG Export Plug-In . SVG Version: 6.00 Build 0)  -->
<!DOCTYPE svg PUBLIC "-//W3C//DTD SVG 1.1//EN" "http://www.w3.org/Graphics/SVG/1.1/DTD/svg11.dtd">

<svg version="1.1" xmlns="http://www.w3.org/2000/svg" xmlns:xlink="http://www.w3.org/1999/xlink" x="0px" y="0px" width="39.707px" height="39.706px" viewBox="0 0 39.707 39.706" style="enable-background:new 0 0 39.707 39.706;" xml:space="preserve">
	<g>
		<path d="M16.798,32.221l2.189-0.009l-4.826,7.494l-4.871-7.465l2.222-0.007l0.051-32.02l5.291,0.008L16.798,32.221z M20.868,21.923
			l1.606,1.744l3.709-3.679v11.898h2.705V17.629h-3.416L20.868,21.923z M30.416,7.041c0,3.432-0.297,5.533-0.893,6.303
			c-0.596,0.77-2.219,1.154-4.873,1.154c-2.047,0-3.443-0.258-4.193-0.773c-0.748-0.516-1.121-1.475-1.121-2.883v-0.49h2.632
			c0,0.904,0.146,1.461,0.438,1.666c0.292,0.205,1.072,0.309,2.34,0.309c1.371,0,2.205-0.143,2.5-0.43
			c0.297-0.285,0.443-1.092,0.443-2.422v-2.08h-0.051c-0.453,0.934-1.548,1.4-3.279,1.4c-1.949,0-3.258-0.273-3.922-0.82
			c-0.667-0.547-0.999-1.619-0.999-3.223c0-1.873,0.35-3.133,1.049-3.779C21.187,0.325,22.554,0,24.589,0
			c2.641,0,4.271,0.375,4.895,1.129C30.107,1.88,30.416,3.852,30.416,7.041z M27.745,4.534c0-1.059-0.166-1.717-0.5-1.975
			c-0.334-0.256-1.185-0.385-2.55-0.385c-1.12,0-1.832,0.129-2.131,0.391c-0.301,0.262-0.449,0.879-0.449,1.854
			c0,0.982,0.15,1.596,0.455,1.838c0.302,0.244,1.062,0.367,2.281,0.367c1.287,0,2.092-0.117,2.412-0.35
			C27.583,6.04,27.745,5.46,27.745,4.534z"/>
	</g>
</svg>
