<?xml version="1.0" encoding="iso-8859-1"?>
<!-- Generator: Adobe Illustrator 19.1.0, SVG Export Plug-In . SVG Version: 6.00 Build 0)  -->
<svg version="1.1" xmlns="http://www.w3.org/2000/svg" xmlns:xlink="http://www.w3.org/1999/xlink" x="0px" y="0px" viewBox="0 0 455.219 455.219" style="enable-background:new 0 0 455.219 455.219;" xml:space="preserve">
	<g>
		<g>
			<path style="fill:#222222;" d="M91.234,0C78.63,0,67.883,2.252,58.984,6.75S42.723,16.944,36.922,23.844
				S26.87,38.411,24.172,46.813c-2.698,8.402-4.031,16.592-4.031,24.594c0,9.595,1.389,18.405,4.188,26.406
				c2.798,8.002,7.163,14.831,13.062,20.531c5.899,5.701,13.424,10.121,22.625,13.219s20.312,4.625,33.312,4.625
				c3.601,0,7.963-0.443,13.062-1.344c5.099-0.9,9.738-2.348,13.938-4.344c-2.802,8.801-6.665,16.108-11.562,21.906
				c-4.898,5.798-10.843,10.437-17.844,13.938c-7.001,3.5-15.08,5.999-24.281,7.5c-9.201,1.502-19.505,2.367-30.906,2.562
				C36.138,182.809,36.523,189,36.923,195s0.705,12.191,0.906,18.594c22.797-0.201,42.492-2.949,59.094-8.25
				c16.601-5.301,30.269-13.051,40.969-23.25c10.699-10.199,18.588-22.782,23.688-37.781c5.099-14.999,7.656-32.302,7.656-51.906
				c0-29.797-6.558-52.663-19.656-68.562C136.48,7.945,117.034,0,91.234,0z M92.422,37.188c6,0,11.058,1.362,15.156,4.062
				c4.098,2.701,7.348,6.394,9.75,11.094s4.096,10.201,5.094,16.5s1.611,13.048,1.812,20.25c0,0.598-0.056,1.294-0.156,2.094
				c-0.101,0.8-0.156,1.607-0.156,2.406v2.688c-2.399,1.599-6.095,2.85-11.094,3.75s-9.804,1.375-14.406,1.375
				c-12,0-20.637-2.612-25.938-7.812s-7.969-13.203-7.969-24c0-3.601,0.555-7.294,1.656-11.094c1.102-3.799,2.768-7.299,4.969-10.5
				c2.2-3.201,5.089-5.813,8.688-7.812C83.426,38.189,87.618,37.188,92.422,37.188z M311.672,82.5c-1.963,0-3.924,1.086-5.312,2.938
				s-2.187,4.445-2.188,7.062v186l-27.281-27.281c-1.833-1.832-4.44-2.882-7.031-2.844c-2.493,0.039-4.955,1.082-6.719,2.844
				l-27.5,27.5c-1.8,1.8-2.844,4.329-2.844,6.875s1.043,5.075,2.844,6.875l91.656,91.625c1.8,1.8,4.329,2.844,6.875,2.844
				s5.075-1.043,6.875-2.844l91.625-91.625c1.8-1.8,2.875-4.329,2.875-6.875s-1.075-5.075-2.875-6.875l-27.5-27.5
				c-1.799-1.796-4.302-2.844-6.844-2.844s-5.076,1.048-6.875,2.844L364.172,278.5v-186c0-2.618-0.799-5.211-2.188-7.062
				s-3.349-2.937-5.312-2.938H311.672z M94.672,238.313c-11.401,0-21.708,2.387-30.906,7.188s-17.087,11.83-23.688,21.031
				s-11.656,20.475-15.156,33.875s-5.25,28.818-5.25,46.219c0,34.998,6.669,61.83,19.969,80.531s31.63,28.062,55.031,28.062
				s41.763-9.361,55.062-28.062c13.299-18.701,19.937-45.534,19.938-80.531c0-34.802-6.638-61.549-19.938-80.25
				C136.435,247.674,118.073,238.313,94.672,238.313L94.672,238.313z M94.672,276.719c5.603,0,10.325,1.694,14.125,5.094
				c3.799,3.4,6.8,8.205,9,14.406s3.783,13.564,4.781,22.062c0.998,8.499,1.5,17.943,1.5,28.344s-0.502,19.9-1.5,28.5
				s-2.581,15.989-4.781,22.188c-2.2,6.198-5.201,11.007-9,14.406c-3.8,3.4-8.522,5.094-14.125,5.094
				c-5.597,0-10.236-1.694-13.938-5.094s-6.702-8.208-9-14.406s-3.937-13.588-4.938-22.188c-1.001-8.6-1.5-18.099-1.5-28.5
				c0-10.4,0.499-19.844,1.5-28.344c1.001-8.499,2.639-15.861,4.938-22.062c2.298-6.201,5.298-11.006,9-14.406
				S89.075,276.719,94.672,276.719z"/>
		</g>
	<g>
</svg>
